<svg width="100%" viewBox="0 0 680 1020" role="img" xmlns="http://www.w3.org/2000/svg">
  <title>PDLC Prompt Library — Discover, Execute, Deliver with activity clusters</title>
  <desc>Three-phase product lifecycle with clustered activities inside each phase.</desc>
  <defs>
    <marker id="arrow" viewBox="0 0 10 10" refX="8" refY="5" markerWidth="6" markerHeight="6" orient="auto-start-reverse">
      <path d="M2 1L8 5L2 9" fill="none" stroke="#888" stroke-width="1.5" stroke-linecap="round" stroke-linejoin="round"/>
    </marker>
    <style>
      text { font-family: sans-serif; fill: #222; }
      .th { font-size: 14px; font-weight: 500; }
      .ts { font-size: 12px; font-weight: 400; fill: #444; }
      .teal-outer { fill: #E1F5EE; stroke: #1D9E75; }
      .teal-cluster { fill: #9FE1CB; stroke: #1D9E75; }
      .teal-pill { fill: #5DCAA5; stroke: #0F6E56; }
      .purple-outer { fill: #EEEDFE; stroke: #534AB7; }
      .purple-cluster { fill: #CECBF6; stroke: #534AB7; }
      .purple-pill { fill: #AFA9EC; stroke: #3C3489; }
      .coral-outer { fill: #FAECE7; stroke: #993C1D; }
      .coral-cluster { fill: #F5C4B3; stroke: #993C1D; }
      .coral-pill { fill: #F0997B; stroke: #712B13; }
      .pill-text { font-size: 11px; fill: #2a2a2a; }
      .cluster-label { font-size: 11px; font-weight: 500; fill: #333; }
      .phase-label { font-size: 14px; font-weight: 600; fill: #111; }
      .phase-sub { font-size: 11px; fill: #555; }
      .arr { fill: none; stroke: #888; stroke-width: 1.5; }
    </style>
  </defs>

  <!-- Title -->
  <text class="phase-label" x="340" y="28" text-anchor="middle">Product lifecycle prompt library</text>
  <text class="ts" x="340" y="46" text-anchor="middle">Every prompt maps to a phase and cluster. Every phase feeds the next.</text>

  <!-- DISCOVER -->
  <rect x="16" y="62" width="204" height="640" rx="14" class="teal-outer" stroke-width="0.5"/>
  <text class="phase-label" x="118" y="84" text-anchor="middle">Discover</text>
  <text class="phase-sub" x="118" y="100" text-anchor="middle">Understand before building</text>

  <rect x="26" y="112" width="184" height="148" rx="8" class="teal-cluster" stroke-width="0.5" fill-opacity="0.4"/>
  <text class="cluster-label" x="118" y="128" text-anchor="middle">Market intelligence</text>
  <rect x="34" y="136" width="168" height="26" rx="5" class="teal-pill" stroke-width="0.5"/>
  <text class="pill-text" x="118" y="153" text-anchor="middle">Win / loss analysis</text>
  <rect x="34" y="168" width="168" height="26" rx="5" class="teal-pill" stroke-width="0.5"/>
  <text class="pill-text" x="118" y="185" text-anchor="middle">Market problems</text>
  <rect x="34" y="200" width="168" height="26" rx="5" class="teal-pill" stroke-width="0.5"/>
  <text class="pill-text" x="118" y="217" text-anchor="middle">Competitive landscape</text>
  <rect x="34" y="232" width="168" height="26" rx="5" class="teal-pill" stroke-width="0.5"/>
  <text class="pill-text" x="118" y="249" text-anchor="middle">Asset assessment</text>

  <rect x="26" y="268" width="184" height="180" rx="8" class="teal-cluster" stroke-width="0.5" fill-opacity="0.4"/>
  <text class="cluster-label" x="118" y="284" text-anchor="middle">Strategy</text>
  <rect x="34" y="292" width="168" height="26" rx="5" class="teal-pill" stroke-width="0.5"/>
  <text class="pill-text" x="118" y="309" text-anchor="middle">Market definition</text>
  <rect x="34" y="324" width="168" height="26" rx="5" class="teal-pill" stroke-width="0.5"/>
  <text class="pill-text" x="118" y="341" text-anchor="middle">Market sizing</text>
  <rect x="34" y="356" width="168" height="26" rx="5" class="teal-pill" stroke-width="0.5"/>
  <text class="pill-text" x="118" y="373" text-anchor="middle">Product portfolio</text>
  <rect x="34" y="388" width="168" height="26" rx="5" class="teal-pill" stroke-width="0.5"/>
  <text class="pill-text" x="118" y="405" text-anchor="middle">Business plan</text>
  <rect x="34" y="420" width="168" height="26" rx="5" class="teal-pill" stroke-width="0.5"/>
  <text class="pill-text" x="118" y="437" text-anchor="middle">Distinctive competencies</text>

  <rect x="26" y="456" width="184" height="116" rx="8" class="teal-cluster" stroke-width="0.5" fill-opacity="0.4"/>
  <text class="cluster-label" x="118" y="472" text-anchor="middle">Buyer understanding</text>
  <rect x="34" y="480" width="168" height="26" rx="5" class="teal-pill" stroke-width="0.5"/>
  <text class="pill-text" x="118" y="497" text-anchor="middle">Buyer persona</text>
  <rect x="34" y="512" width="168" height="26" rx="5" class="teal-pill" stroke-width="0.5"/>
  <text class="pill-text" x="118" y="529" text-anchor="middle">Buyer experience</text>
  <rect x="34" y="544" width="168" height="26" rx="5" class="teal-pill" stroke-width="0.5"/>
  <text class="pill-text" x="118" y="561" text-anchor="middle">Distribution strategy</text>

  <rect x="26" y="580" width="184" height="112" rx="8" class="teal-cluster" stroke-width="0.5" fill-opacity="0.4"/>
  <text class="cluster-label" x="118" y="596" text-anchor="middle">GTM direction</text>
  <rect x="34" y="604" width="168" height="26" rx="5" class="teal-pill" stroke-width="0.5"/>
  <text class="pill-text" x="118" y="621" text-anchor="middle">Positioning</text>
  <rect x="34" y="636" width="168" height="26" rx="5" class="teal-pill" stroke-width="0.5"/>
  <text class="pill-text" x="118" y="653" text-anchor="middle">Pricing strategy</text>
  <rect x="34" y="668" width="168" height="26" rx="5" class="teal-pill" stroke-width="0.5"/>
  <text class="pill-text" x="118" y="685" text-anchor="middle">GTM strategy</text>

  <!-- EXECUTE -->
  <rect x="238" y="62" width="204" height="430" rx="14" class="purple-outer" stroke-width="0.5"/>
  <text class="phase-label" x="340" y="84" text-anchor="middle">Execute</text>
  <text class="phase-sub" x="340" y="100" text-anchor="middle">Build the right thing</text>

  <rect x="248" y="112" width="184" height="212" rx="8" class="purple-cluster" stroke-width="0.5" fill-opacity="0.4"/>
  <text class="cluster-label" x="340" y="128" text-anchor="middle">Product definition</text>
  <rect x="256" y="136" width="168" height="26" rx="5" class="purple-pill" stroke-width="0.5"/>
  <text class="pill-text" x="340" y="153" text-anchor="middle">Market requirements</text>
  <rect x="256" y="168" width="168" height="26" rx="5" class="purple-pill" stroke-width="0.5"/>
  <text class="pill-text" x="340" y="185" text-anchor="middle">User personas</text>
  <rect x="256" y="200" width="168" height="26" rx="5" class="purple-pill" stroke-width="0.5"/>
  <text class="pill-text" x="340" y="217" text-anchor="middle">Use scenarios</text>
  <rect x="256" y="232" width="168" height="26" rx="5" class="purple-pill" stroke-width="0.5"/>
  <text class="pill-text" x="340" y="249" text-anchor="middle">Buy, build or partner</text>
  <rect x="256" y="264" width="168" height="26" rx="5" class="purple-pill" stroke-width="0.5"/>
  <text class="pill-text" x="340" y="281" text-anchor="middle">Innovation</text>
  <rect x="256" y="296" width="168" height="26" rx="5" class="purple-pill" stroke-width="0.5"/>
  <text class="pill-text" x="340" y="313" text-anchor="middle">Product profitability</text>

  <rect x="248" y="332" width="184" height="150" rx="8" class="purple-cluster" stroke-width="0.5" fill-opacity="0.4"/>
  <text class="cluster-label" x="340" y="348" text-anchor="middle">Delivery planning</text>
  <rect x="256" y="356" width="168" height="26" rx="5" class="purple-pill" stroke-width="0.5"/>
  <text class="pill-text" x="340" y="373" text-anchor="middle">Roadmap prioritization</text>
  <rect x="256" y="388" width="168" height="26" rx="5" class="purple-pill" stroke-width="0.5"/>
  <text class="pill-text" x="340" y="405" text-anchor="middle">Product roadmap</text>
  <rect x="256" y="420" width="168" height="26" rx="5" class="purple-pill" stroke-width="0.5"/>
  <text class="pill-text" x="340" y="437" text-anchor="middle">Stakeholder comms</text>
  <rect x="256" y="452" width="168" height="26" rx="5" class="purple-pill" stroke-width="0.5"/>
  <text class="pill-text" x="340" y="469" text-anchor="middle">Release planning</text>

  <!-- DELIVER -->
  <rect x="460" y="62" width="204" height="500" rx="14" class="coral-outer" stroke-width="0.5"/>
  <text class="phase-label" x="562" y="84" text-anchor="middle">Deliver</text>
  <text class="phase-sub" x="562" y="100" text-anchor="middle">Get it to market</text>

  <rect x="470" y="112" width="184" height="278" rx="8" class="coral-cluster" stroke-width="0.5" fill-opacity="0.4"/>
  <text class="cluster-label" x="562" y="128" text-anchor="middle">Go to market</text>
  <rect x="478" y="136" width="168" height="26" rx="5" class="coral-pill" stroke-width="0.5"/>
  <text class="pill-text" x="562" y="153" text-anchor="middle">Product launch plan</text>
  <rect x="478" y="168" width="168" height="26" rx="5" class="coral-pill" stroke-width="0.5"/>
  <text class="pill-text" x="562" y="185" text-anchor="middle">Marketing plan</text>
  <rect x="478" y="200" width="168" height="26" rx="5" class="coral-pill" stroke-width="0.5"/>
  <text class="pill-text" x="562" y="217" text-anchor="middle">Sales alignment</text>
  <rect x="478" y="232" width="168" height="26" rx="5" class="coral-pill" stroke-width="0.5"/>
  <text class="pill-text" x="562" y="249" text-anchor="middle">Sales tools</text>
  <rect x="478" y="264" width="168" height="26" rx="5" class="coral-pill" stroke-width="0.5"/>
  <text class="pill-text" x="562" y="281" text-anchor="middle">Channel training</text>
  <rect x="478" y="296" width="168" height="26" rx="5" class="coral-pill" stroke-width="0.5"/>
  <text class="pill-text" x="562" y="313" text-anchor="middle">Awareness</text>
  <rect x="478" y="328" width="168" height="26" rx="5" class="coral-pill" stroke-width="0.5"/>
  <text class="pill-text" x="562" y="345" text-anchor="middle">Nurturing</text>
  <rect x="478" y="360" width="168" height="26" rx="5" class="coral-pill" stroke-width="0.5"/>
  <text class="pill-text" x="562" y="377" text-anchor="middle">Events</text>

  <rect x="470" y="398" width="184" height="154" rx="8" class="coral-cluster" stroke-width="0.5" fill-opacity="0.4"/>
  <text class="cluster-label" x="562" y="414" text-anchor="middle">Measure and grow</text>
  <rect x="478" y="422" width="168" height="26" rx="5" class="coral-pill" stroke-width="0.5"/>
  <text class="pill-text" x="562" y="439" text-anchor="middle">Revenue growth</text>
  <rect x="478" y="454" width="168" height="26" rx="5" class="coral-pill" stroke-width="0.5"/>
  <text class="pill-text" x="562" y="471" text-anchor="middle">Revenue retention</text>
  <rect x="478" y="486" width="168" height="26" rx="5" class="coral-pill" stroke-width="0.5"/>
  <text class="pill-text" x="562" y="503" text-anchor="middle">Advocacy</text>
  <rect x="478" y="518" width="168" height="26" rx="5" class="coral-pill" stroke-width="0.5"/>
  <text class="pill-text" x="562" y="535" text-anchor="middle">Measurement</text>

  <!-- Arrows between phases -->
  <line x1="222" y1="200" x2="236" y2="200" class="arr" marker-end="url(#arrow)" stroke-width="2"/>
  <line x1="444" y1="200" x2="458" y2="200" class="arr" marker-end="url(#arrow)" stroke-width="2"/>

  <!-- Loop arrow -->
  <path d="M562 564 Q562 620 340 648 Q118 676 118 704 L118 704" fill="none" stroke="#888" stroke-width="1.5" stroke-dasharray="6 4" marker-end="url(#arrow)"/>
  <text class="ts" x="340" y="690" text-anchor="middle">Every launch creates new market data</text>
  <text class="ts" x="340" y="708" text-anchor="middle">— feeds back into the next discover cycle</text>

  <!-- Legend -->
  <rect x="16" y="726" width="648" height="50" rx="10" fill="none" stroke="#ccc" stroke-width="0.5"/>
  <text class="ts" x="340" y="744" text-anchor="middle">Grounded in the Pragmatic Framework — Market, Focus, Business, Planning, Programs, Enablement, Support</text>
  <rect x="36" y="754" width="10" height="10" rx="2" fill="#5DCAA5"/>
  <text class="ts" x="52" y="763">Discover</text>
  <rect x="200" y="754" width="10" height="10" rx="2" fill="#AFA9EC"/>
  <text class="ts" x="216" y="763">Execute</text>
  <rect x="360" y="754" width="10" height="10" rx="2" fill="#F0997B"/>
  <text class="ts" x="376" y="763">Deliver</text>
</svg>